<?xml version="1.0" encoding="UTF-8"?>
<svg width="21px" height="21px" viewBox="0 0 21 21" version="1.1" xmlns="http://www.w3.org/2000/svg" xmlns:xlink="http://www.w3.org/1999/xlink">
    <!-- Generator: Sketch 46.2 (44496) - http://www.bohemiancoding.com/sketch -->
    <title>bullet-gray-logo</title>
    <desc>Created with Sketch.</desc>
    <defs></defs>
    <g id="Symbols" stroke="none" stroke-width="1" fill="none" fill-rule="evenodd">
        <g id="Video-Lesson" transform="translate(0.000000, -2.000000)">
            <g id="bullet-gray-logo" transform="translate(0.000000, 2.000000)">
                <circle id="Icon" fill="#D8D8D8" cx="10.5" cy="10.5" r="10.5"></circle>
                <path d="M8.36849784,7.20019121 C7.80327262,7.71427473 7.30673796,8.2828172 6.88276132,8.89598891 C6.69094725,9.17325505 6.25,9.04490365 6.25,8.71007145 L6.25,5.79024655 C6.25,5.60382066 6.40440946,5.4527027 6.59489591,5.4527027 L9.49964097,5.4527027 C9.69012741,5.4527027 9.84459459,5.60382066 9.84459459,5.79024655 L9.84459459,5.90204559 C9.84459459,6.01576539 9.78537063,6.1208418 9.68856888,6.18371817 C9.22066491,6.48759237 8.77908271,6.82671801 8.36849784,7.20019121 Z M9.82425913,7.68099199 C10.0067804,7.54430457 10.19573,7.4155641 10.38864,7.29221619 C10.5725961,7.17460144 10.7602257,7.06198191 10.9529635,6.95674168 C12.2668867,6.23913276 13.7772211,5.81079254 15.3843836,5.71015019 C15.5822297,5.69777566 15.75,5.85325192 15.75,6.04931435 L15.75,8.91361957 C15.75,9.0898714 15.6132239,9.23586809 15.4356962,9.25102405 C13.9376446,9.37851571 12.5979503,9.92220012 11.6102121,10.81362 C10.4584917,11.8530234 9.82425913,13.3249675 9.82425913,14.9584048 L9.82425913,16.1540791 C9.82425913,16.3413431 9.6706658,16.4932432 9.48125699,16.4932432 L6.59294475,16.4932432 C6.40353593,16.4932432 6.25,16.3413431 6.25,16.1540791 L6.25,15.8497679 L6.25,15.0962275 L6.25,14.9584048 C6.25,14.7311222 6.25820772,14.5057696 6.27347521,14.282347 C6.43424312,11.9350472 7.4320258,9.81656255 9.12482403,8.26066469 C9.34775247,8.05580386 9.58147147,7.86280668 9.82425913,7.68099199 Z" id="R" fill="#FFFFFF"></path>
            </g>
        </g>
    </g>
</svg>