<?xml version="1.0" encoding="UTF-8"?>
<svg width="171px" height="43px" viewBox="0 0 171 43" version="1.1" xmlns="http://www.w3.org/2000/svg" xmlns:xlink="http://www.w3.org/1999/xlink">
    <!-- Generator: Sketch 46.2 (44496) - http://www.bohemiancoding.com/sketch -->
    <title>Logo</title>
    <desc>Created with Sketch.</desc>
    <defs></defs>
    <g id="Page-1" stroke="none" stroke-width="1" fill="none" fill-rule="evenodd">
        <g id="Refactoring-Rails-02-Alt-Heading" transform="translate(-135.000000, -58.000000)" fill="#FFFFFF">
            <g id="Hero-Header">
                <path d="M201.616693,100.201823 L198.548061,91.801061 C197.611095,91.8854381 196.630307,91.9270702 195.607731,91.9270702 L195.607731,100.076036 C195.607731,100.66356 195.266421,100.999955 194.670765,100.999955 L189.982772,100.999955 C189.385986,100.999955 189.044676,100.66356 189.044676,100.076036 L189.044676,75.9239014 C189.044676,75.3363779 189.385986,74.9999824 189.982772,74.9999824 L198.164962,74.9999824 C205.068199,74.9999824 208.563751,77.7303302 208.563751,83.0645713 C208.563751,86.4247425 207.114255,88.8609946 204.301323,90.2889505 L208.946398,99.8654273 C209.245017,100.495473 208.946398,100.957878 208.222441,100.957878 L202.681962,100.957878 C202.127869,100.957878 201.786784,100.70586 201.616693,100.201823 Z M201.915086,83.1905805 C201.915086,81.1328013 200.594117,80.0407957 197.86657,80.0407957 L195.607731,80.0407957 L195.607731,86.970634 C199.741632,87.1805751 201.915086,85.8365511 201.915086,83.1905805 Z M222.385427,95.4553753 L220.561866,100.243907 C220.388533,100.747939 220.040947,100.999955 219.476292,100.999955 L214.915777,100.999955 C214.221525,100.999955 213.917444,100.579631 214.134283,99.9498135 L223.211577,75.7564764 C223.38491,75.2526665 223.732727,74.9999824 224.297382,74.9999824 L229.855999,74.9999824 C230.420654,74.9999824 230.767319,75.2526665 230.941803,75.7564764 L240.017946,99.9498135 C240.234785,100.579631 239.930704,100.999955 239.236453,100.999955 L234.198755,100.999955 C233.633869,100.999955 233.286283,100.747939 233.11295,100.243907 L231.331744,95.4553753 L222.385427,95.4553753 Z M224.036807,90.5412811 L229.638009,90.5412811 L226.858701,80.5445624 L224.036807,90.5412811 Z M248.093489,100.076036 L248.093489,75.9245693 C248.093489,75.3363779 248.416038,74.9999824 248.980391,74.9999824 L253.211336,74.9999824 C253.775904,74.9999824 254.098453,75.3363779 254.098453,75.9245693 L254.098453,100.076036 C254.098453,100.663782 253.775904,100.999955 253.211336,100.999955 L248.980391,100.999955 C248.416038,100.999955 248.093489,100.663782 248.093489,100.076036 Z M264.106726,100.076036 L264.106726,75.9245693 C264.106726,75.3363779 264.457763,74.9999824 265.071556,74.9999824 L269.717053,74.9999824 C270.330846,74.9999824 270.681884,75.3363779 270.681884,75.9245693 L270.681884,95.9177326 L281.156787,95.9177326 C281.77058,95.9177326 282.121618,96.2534603 282.121618,96.8418743 L282.121618,100.076036 C282.121618,100.663782 281.77058,100.999955 281.156787,100.999955 L265.071556,100.999955 C264.457763,100.999955 264.106726,100.663782 264.106726,100.076036 Z M290.64105,94.6851305 C292.318944,95.3163943 294.426914,95.906154 296.147906,95.906154 C298.127264,95.906154 299.245784,95.1064193 299.245784,93.5906275 C299.245784,91.3172745 296.578896,90.4751432 293.867312,89.1280454 C291.157325,87.7809476 288.490209,85.8447595 288.490209,81.5923755 C288.490209,76.7093971 291.974836,74.0149784 297.826028,74.0149784 C300.149721,74.0149784 302.385848,74.4353747 304.236593,75.0251344 C304.795967,75.1936053 305.011005,75.614671 304.839294,76.2037613 L303.89203,79.4035927 C303.677447,79.992683 303.289785,80.1611539 302.687084,79.9505094 C301.268468,79.4453199 299.417495,79.0242542 298.084165,79.0242542 C296.104807,79.0242542 295.158912,79.9505094 295.158912,81.2137065 C295.158912,83.2344647 297.610989,83.9918028 300.106622,85.1289256 C302.988321,86.4336267 306,88.3704842 306,93.2117354 C306,98.4318787 302.214136,101 295.976195,101 C293.351493,101 291.028713,100.578934 288.791445,99.7789765 C288.2323,99.5687783 288.017261,99.1477127 288.2323,98.6003496 L289.437245,95.2324936 C289.608957,94.642957 290.038578,94.4325357 290.64105,94.6851305 Z M194.073796,67.693359 L192.846173,64.4624523 C192.470966,64.49418 192.078909,64.5105763 191.670225,64.5105763 L191.670225,67.6448092 C191.670225,67.8709493 191.533623,67.9999896 191.295018,67.9999896 L189.419883,67.9999896 C189.181278,67.9999896 189.044676,67.8709493 189.044676,67.6448092 L189.044676,58.3551804 C189.044676,58.1290404 189.181278,58 189.419883,58 L192.69272,58 C195.453748,58 196.851675,59.0499968 196.851675,61.1018664 C196.851675,62.3943994 196.272688,63.3313262 195.147067,63.880493 L197.005128,67.5643187 C197.125104,67.8062161 197.005128,67.9840193 196.716196,67.9840193 L194.499555,67.9840193 C194.277801,67.9840193 194.142097,67.8869196 194.073796,67.693359 Z M194.192649,61.1502033 C194.192649,60.3582872 193.663989,59.9383737 192.572969,59.9383737 L191.670225,59.9383737 L191.670225,62.6041433 C193.323382,62.6852726 194.192649,62.1682594 194.192649,61.1502033 Z M200.053777,67.6443985 L200.053777,58.3553782 C200.053777,58.1292478 200.188414,58 200.423586,58 L206.454586,58 C206.690865,58 206.824396,58.1292478 206.824396,58.3553782 L206.824396,59.5995214 C206.824396,59.8256518 206.690865,59.9546867 206.454586,59.9546867 L202.574019,59.9546867 L202.574019,61.9419514 L206.05156,61.9419514 C206.286732,61.9419514 206.421369,62.0707734 206.421369,62.2975426 L206.421369,63.541047 C206.421369,63.7671774 206.286732,63.8966381 206.05156,63.8966381 L202.574019,63.8966381 L202.574019,66.045303 L206.690865,66.045303 C206.926038,66.045303 207.059568,66.1747637 207.059568,66.4008941 L207.059568,67.6443985 C207.059568,67.8709547 206.926038,67.9999896 206.690865,67.9999896 L200.423586,67.9999896 C200.188414,67.9999896 200.053777,67.8709547 200.053777,67.6443985 Z M212.383749,62.474817 L215.417134,62.474817 C215.633761,62.474817 215.757984,62.604275 215.757984,62.8304006 L215.757984,64.0745173 C215.757984,64.3006429 215.633761,64.429675 215.417134,64.429675 L212.383749,64.429675 L212.383749,67.644406 C212.383749,67.8709575 212.259729,67.9999896 212.043103,67.9999896 L210.4029,67.9999896 C210.186274,67.9999896 210.06205,67.8709575 210.06205,67.644406 L210.06205,58.3555836 C210.06205,58.129458 210.186274,58 210.4029,58 L215.726368,58 C215.942994,58 216.067014,58.129458 216.067014,58.3555836 L216.067014,59.5997002 C216.067014,59.8258258 215.942994,59.954858 215.726368,59.954858 L212.383749,59.954858 L212.383749,62.474817 Z M221.268249,65.8672944 L220.567034,67.7091288 C220.499884,67.9028941 220.367347,67.9999896 220.149827,67.9999896 L218.395797,67.9999896 C218.12808,67.9999896 218.011835,67.8385896 218.095276,67.5960636 L221.586603,58.2906479 C221.652432,58.0970955 221.78651,58 222.00359,58 L224.141802,58 C224.359102,58 224.492961,58.0970955 224.559009,58.2906479 L228.050337,67.5960636 C228.133778,67.8385896 228.017533,67.9999896 227.749596,67.9999896 L225.812391,67.9999896 C225.595091,67.9999896 225.461013,67.9028941 225.394304,67.7091288 L224.70916,65.8672944 L221.268249,65.8672944 Z M221.903857,63.9773381 L224.058361,63.9773381 L222.989475,60.1324822 L221.903857,63.9773381 Z M238.835519,68.4686089 C237.988733,68.8283572 237.108021,68.9999886 236.157863,68.9999886 C232.77163,68.9999886 231.079424,67.2353473 231.079424,63.7568767 C231.079424,60.1587159 232.910294,58 236.261007,58 C237.177239,58 238.041102,58.1542424 238.749224,58.4284009 C238.973956,58.5137649 239.043402,58.6849446 238.95574,58.9080653 L238.541569,60.1930421 C238.455274,60.4159371 238.29976,60.5015269 238.057951,60.4159371 C237.540636,60.2273684 236.969584,60.073126 236.347303,60.073126 C234.602728,60.073126 233.791234,61.3409397 233.791234,63.5339818 C233.791234,65.6585972 234.516432,66.9437999 236.330453,66.9437999 C237.12487,66.9437999 237.677706,66.7552312 238.179539,66.5494994 C238.421348,66.4641354 238.59371,66.5494994 238.662929,66.7893317 L239.060251,67.9889444 C239.129697,68.2118394 239.060251,68.3830191 238.835519,68.4686089 Z M246.950136,67.6443985 C246.950136,67.8709547 246.807766,67.9999896 246.559088,67.9999896 L244.622582,67.9999896 C244.373669,67.9999896 244.231534,67.8709547 244.231534,67.6443985 L244.231534,59.9546867 L241.477574,59.9546867 C241.228662,59.9546867 241.087697,59.8256518 241.087697,59.5995214 L241.087697,58.3553782 C241.087697,58.1292478 241.228662,58 241.477574,58 L249.704095,58 C249.95254,58 250.095143,58.1292478 250.095143,58.3553782 L250.095143,59.5995214 C250.095143,59.8256518 249.95254,59.9546867 249.704095,59.9546867 L246.950136,59.9546867 L246.950136,67.6443985 Z M252.096798,63.6195349 C252.096798,60.0499754 253.973266,58 257.253797,58 C260.347373,58 262.105071,59.9470939 262.105071,63.3635694 C262.105071,66.933129 260.228604,68.9999886 256.93136,68.9999886 C253.85561,68.9999886 252.096798,67.0357853 252.096798,63.6195349 Z M254.734237,63.5515476 C254.734237,65.7721666 255.511697,66.8989102 257.067064,66.8989102 C258.65697,66.8989102 259.467633,65.754607 259.467633,63.4657755 C259.467633,61.2282722 258.690172,60.1008533 257.118093,60.1008533 C255.52841,60.1008533 254.734237,61.2627161 254.734237,63.5515476 Z M269.135848,67.693359 L267.908225,64.4624523 C267.533018,64.49418 267.14096,64.5105763 266.732052,64.5105763 L266.732052,67.6448092 C266.732052,67.8709493 266.59545,67.9999896 266.35707,67.9999896 L264.481933,67.9999896 C264.243328,67.9999896 264.106726,67.8709493 264.106726,67.6448092 L264.106726,58.3551804 C264.106726,58.1290404 264.243328,58 264.481933,58 L267.754772,58 C270.515802,58 271.913729,59.0499968 271.913729,61.1018664 C271.913729,62.3943994 271.334741,63.3313262 270.208896,63.880493 L272.067182,67.5643187 C272.187158,67.8062161 272.067182,67.9840193 271.778025,67.9840193 L269.561383,67.9840193 C269.339853,67.9840193 269.20415,67.8869196 269.135848,67.693359 Z M269.254701,61.1502033 C269.254701,60.3582872 268.725817,59.9383737 267.63502,59.9383737 L266.732052,59.9383737 L266.732052,62.6041433 C268.385434,62.6852726 269.254701,62.1682594 269.254701,61.1502033 Z M276.116654,67.6443985 L276.116654,58.3553782 C276.116654,58.1292478 276.224287,58 276.412291,58 L277.822672,58 C278.010499,58 278.118309,58.1292478 278.118309,58.3553782 L278.118309,67.6443985 C278.118309,67.8709547 278.010499,67.9999896 277.822672,67.9999896 L276.412291,67.9999896 C276.224287,67.9999896 276.116654,67.8709547 276.116654,67.6443985 Z M292.129891,58.3555911 L292.129891,67.6446114 C292.129891,67.8711677 291.995703,67.9999896 291.760706,67.9999896 L290.250807,67.9999896 C290.049192,67.9999896 289.915667,67.9352593 289.797837,67.7740721 L285.554865,62.1521122 L285.554865,67.6446114 C285.554865,67.8711677 285.420234,67.9999896 285.18568,67.9999896 L283.49163,67.9999896 C283.256855,67.9999896 283.122445,67.8711677 283.122445,67.6446114 L283.122445,58.3555911 C283.122445,58.1294607 283.256855,58 283.49163,58 L285.00153,58 C285.202039,58 285.33667,58.0647304 285.454499,58.2261304 L289.714052,63.816151 L289.714052,58.3555911 C289.714052,58.1294607 289.848683,58 290.083237,58 L291.760706,58 C291.995703,58 292.129891,58.1294607 292.129891,58.3555911 Z M303.881711,68.0590651 C302.917382,68.589617 301.746021,68.9999886 300.212583,68.9999886 C296.905759,68.9999886 295.132373,67.0669579 295.132373,63.6626773 C295.132373,59.9673035 297.267836,58 300.798944,58 C301.815031,58 302.727376,58.170913 303.674453,58.51319 C303.89851,58.5986465 303.984546,58.7700105 303.915535,58.9921072 L303.519407,60.2583968 C303.433371,60.4978554 303.278551,60.5833119 303.037242,60.4978554 C302.504454,60.3095805 301.677011,60.0701219 300.815743,60.0701219 C298.835326,60.0701219 297.870996,61.3014622 297.870996,63.6110427 C297.870996,65.7327992 298.663254,66.9298667 300.333578,66.9298667 C300.712908,66.9298667 301.194846,66.8617721 301.660212,66.6734972 L301.660212,64.1073217 C301.660212,63.8678631 301.798006,63.7312229 302.039315,63.7312229 L303.760489,63.7312229 C304.002706,63.7312229 304.139819,63.8678631 304.139819,64.1073217 L304.139819,67.6144207 C304.139819,67.8196065 304.053783,67.9566977 303.881711,68.0590651 Z M143.257818,64.8060008 C141.054593,66.8082187 139.119121,69.0225398 137.466478,71.4106797 C136.718794,72.4905573 135,71.9906628 135,70.6865809 L135,59.3146431 C135,58.5885641 135.601882,58 136.34439,58 L147.666968,58 C148.409476,58 149.011583,58.5885641 149.011583,59.3146431 L149.011583,59.7500705 C149.011583,60.1929787 148.78073,60.6022232 148.403401,60.8471099 C146.57953,62.0306187 144.858261,63.3514225 143.257818,64.8060008 Z M148.932316,66.6785914 C149.643776,66.1462304 150.380294,65.6448207 151.132249,65.1644135 C151.849303,64.7063355 152.580675,64.2677125 153.331959,63.85783 C158.453578,61.0629349 164.3408,59.3946642 170.605454,59.0026892 C171.37665,58.9544937 172.030611,59.5600322 172.030611,60.323643 L172.030611,71.4793464 C172.030611,72.1658002 171.497464,72.7344183 170.805468,72.7934467 C164.966124,73.2899927 159.744051,75.4074982 155.893887,78.8793406 C151.404528,82.9275389 148.932316,88.6603678 148.932316,95.0221697 L148.932316,99.6790016 C148.932316,100.408345 148.333615,100.999955 147.595308,100.999955 L136.336785,100.999955 C135.598477,100.999955 135,100.408345 135,99.6790016 L135,98.493791 L135,95.5589522 L135,95.0221697 C135,94.1369648 135.031993,93.2592767 135.091505,92.3891053 C135.718172,83.2469997 139.607488,74.9960681 146.205946,68.9362617 C147.074912,68.1383835 147.985939,67.386711 148.932316,66.6785914 Z" id="Logo"></path>
            </g>
        </g>
    </g>
</svg>